<svg xmlns="http://www.w3.org/2000/svg"><symbol id="icon-cart">
  <circle cx="4.5" cy="13.5" r="1.5"/>
  <circle cx="12.5" cy="13.5" r="1.5"/>
  <path d="M15 2H4l-.4-2H0v2h2l2 9h11V9H9.4L15 7z"/>
</symbol><symbol id="icon-fb">
  <path d="M45 33v-4h-4a4 4 0 0 0-4 4v4h-4v4h4v10h4V41h4v-4h-4v-4h4z"/>
</symbol><symbol id="icon-instagram">
  <path d="M47 30H32a3 3 0 0 0-3 3v15a3 3 0 0 0 3 3h15a3 3 0 0 0 3-3V33a3 3 0 0 0-3-3zm-7.5 7a3.5 3.5 0 1 1 0 7 3.5 3.5 0 0 1 0-7zM47 48H32v-9h1.2a6.5 6.5 0 1 0 12.6 0H47v9zm0-11h-4v-4h4v4z"/>
</symbol><symbol id="icon-vk">
  <path d="M42.1 45.5c1-.3 2.2 2 3.5 3 1 .6 1.7.5 1.7.5h3.5s1.8-.2 1-1.6c0-.1-.5-1-2.6-3-2.2-2-1.9-1.8.7-5.3 1.6-2.1 2.3-3.5 2-4-.1-.6-1.3-.4-1.3-.4h-4c-.3 0-.6.1-.8.5 0 0-.6 1.7-1.4 3.1-1.7 3-2.4 3.2-2.7 3-.7-.5-.5-1.8-.5-2.7 0-2.9.4-4.1-.9-4.4-.4-.1-.7-.2-1.8-.2a9 9 0 0 0-3.2.3c-.5.3-.8.7-.6.8.2 0 .8.1 1.1.6.4.5.4 1.7.4 1.7s.3 3.5-.5 3.9c-.5.3-1.3-.3-2.8-3-.8-1.4-1.4-3-1.4-3l-.3-.3-.6-.3h-3.8s-.5 0-.7.2c-.2.3 0 .7 0 .7S29 42.5 32.3 46c3 3.1 6.4 3 6.4 3h1.6s.4-.1.7-.4c.2-.2.2-.7.2-.7s0-2 1-2.4z"/>
</symbol></svg>