<svg xmlns="http://www.w3.org/2000/svg"><symbol id="icon-bookmark" viewBox="0 0 14 16"><path fill="#fff" d="M14 15c0 .55-.368.741-.818.426l-5.363-3.765c-.45-.315-1.187-.315-1.637 0L.818 15.426C.368 15.741 0 15.55 0 15V1c0-.55.45-1 1-1h12c.55 0 1 .45 1 1v14z"/></symbol><symbol id="icon-cart" viewBox="0 0 15 15"><circle fill="#fff" cx="4.5" cy="13.5" r="1.5"/><circle fill="#fff" cx="12.5" cy="13.5" r="1.5"/><path fill="#fff" d="M15 2H4.07l-.422-2H0v2h2.031l1.985 9H15V9H9.441L15 6.951z"/></symbol><symbol id="icon-left" viewBox="0 0 22 40"><path fill="#FFF" d="M19.83-.035l2.089 2.099L4.13 19.947l17.847 17.939-2.09 2.099L-.048 19.947z"/></symbol><symbol id="icon-logout" viewBox="0 0 21 17"><g fill="#c5c5c5"><path d="M21 8.5L12.125 0v6h-6v5h6v6z"/><path d="M3.106 13.952V3.048c.018-.376.171-1.057 1.01-1.057h5.027V0H4.116C1.938 0 1.112 1.81 1.087 3.027v10.946C1.112 15.189 1.938 17 4.116 17h5.027v-1.99H4.116c-.839 0-.992-.683-1.01-1.058z"/></g></symbol><symbol id="icon-right-small" viewBox="0 0 8 12"><path fill="#C1C6CE" d="M7.237 5.642L1.729.133a.506.506 0 1 0-.716.716L6.163 6l-5.151 5.15a.507.507 0 0 0 .716.717l5.509-5.509a.504.504 0 0 0 0-.716z"/></symbol><symbol id="icon-right" viewBox="0 0 22 40"><path fill="#FFF" d="M2.098-.035L.009 2.064l17.789 17.883L-.048 37.886l2.089 2.099 19.935-20.038z"/></symbol><symbol id="icon-user" viewBox="0 0 20 18"><path fill="#c5c5c5" d="M17.881 14.166c-2.144-.735-4.256-1.666-5.207-2.39-.657-.501-.77-1.618-.517-2.415 1.118-.903 1.864-2.477 1.864-4.278C14.021 2.276 12.221 0 10 0S5.979 2.276 5.979 5.083c0 1.801.746 3.374 1.863 4.277.253.798.141 1.915-.517 2.416-.95.724-3.063 1.654-5.207 2.39S0 18 0 18h20s.025-3.099-2.119-3.834z"/></symbol><symbol id="sprite"/></svg>